<?xml version="1.0" encoding="utf-8"?>
<!-- Generator: Adobe Illustrator 24.1.1, SVG Export Plug-In . SVG Version: 6.00 Build 0)  -->
<svg version="1.1" id="vector" xmlns="http://www.w3.org/2000/svg" xmlns:xlink="http://www.w3.org/1999/xlink" x="0px" y="0px"
	 viewBox="0 0 263 263" style="enable-background:new 0 0 263 263;" xml:space="preserve">
<style type="text/css">
	.st0{fill:#DB4437;}
	.st1{fill:#0F9D58;}
	.st2{fill:#4285F4;}
	.st3{fill:#F4B400;}
	.st4{fill:#F89820;}
	.st5{fill:#FFFFFF;}
</style>
<path id="path" class="st0" d="M162.1,178.6l41.2-41.2l-41.2-41.2L149.4,109l28.5,28.5L149.4,166L162.1,178.6z"/>
<path class="st1" d="M176.3,200.2H86.5v-17.9H68.6v53.8h125.6v-53.8h-17.9V200.2z"/>
<path class="st2" d="M86.5,74.4h89.7v17.9h17.9V38.6L68.6,38.5v53.8h17.9V74.4z"/>
<path id="path_3" class="st3" d="M113.5,165.8L85,137.3l28.5-28.5L100.8,96l-41.2,41.2l41.2,41.2L113.5,165.8z"/>
<polygon class="st4" points="136,0.2 0,136.1 0,72.9 72.9,0 "/>
<path class="st5" d="M33.5,55.3l-7.9,7.9c-1.4,1.4-1.4,3.8,0,5.3l13.2,13.2l3.9-3.9l-3.9-3.9l5.3-5.3l3.9,3.9l3.9-3.9L38.7,55.3
	C37.3,53.8,34.9,53.8,33.5,55.3z M40,64.5l-5.3,5.3l-3.9-3.9l5.3-5.3L40,64.5z"/>
<path class="st5" d="M48.4,40.3l3.9-3.9l11.2,20.4l-3.9,3.9L39.2,49.6l3.9-3.9L54.8,52L48.4,40.3z"/>
<path class="st5" d="M15.9,72.8l11.8,11.8l-3.9,3.9L21.2,86l-3.9,3.9l2.6,2.6c2.2,2.2,5.7,2.2,7.9,0l3.9-3.9c2.2-2.2,2.2-5.7,0-7.9
	L19.8,68.9C19.8,68.9,18.1,70.6,15.9,72.8z"/>
<path class="st5" d="M66,23l-7.8,7.8c-1.4,1.4-1.4,3.8,0,5.2l13.1,13.1l3.9-3.9l-3.9-3.9l5.2-5.2l3.9,3.9l3.9-3.9L71.2,23
	C69.8,21.5,67.4,21.5,66,23z M72.5,32.1l-5.2,5.2l-3.9-3.9l5.2-5.2L72.5,32.1z"/>
</svg>
